<svg data-v-423bf9ae="" xmlns="http://www.w3.org/2000/svg" viewBox="0 0 3050 2560" class="iconLeft"><!----><!----><!----><g data-v-423bf9ae="" id="e97d50e5-27e3-47da-9767-f529e2feb840" fill="#4e1a70" transform="matrix(4.258339489801132,0,0,4.258339489801132,2598.3950826137348,1238.1192716097073)"><path d="M5.84 4.03Q6.48 4.03 7.17 4.15Q7.85 4.27 8.26 4.48L8.26 4.48Q8.37 4.54 8.41 4.60Q8.44 4.66 8.47 4.82L8.47 4.82L8.62 6.51Q8.62 6.55 8.55 6.56Q8.48 6.57 8.47 6.52L8.47 6.52Q8.11 5.43 7.28 4.89Q6.45 4.35 5.29 4.35L5.29 4.35Q4.27 4.35 3.51 4.82Q2.76 5.29 2.36 6.15Q1.96 7 1.96 8.12L1.96 8.12Q1.96 9.42 2.46 10.51Q2.97 11.61 3.83 12.24Q4.69 12.88 5.71 12.88L5.71 12.88Q7.73 12.88 8.60 10.57L8.60 10.57Q8.60 10.53 8.65 10.53L8.65 10.53Q8.69 10.53 8.73 10.54Q8.76 10.56 8.76 10.58L8.76 10.58L8.57 12.28Q8.54 12.45 8.51 12.49Q8.47 12.54 8.34 12.60L8.34 12.60Q7.06 13.10 5.71 13.10L5.71 13.10Q4.02 13.10 2.88 12.43Q1.75 11.75 1.22 10.70Q0.69 9.65 0.69 8.50L0.69 8.50Q0.69 7.20 1.41 6.18Q2.13 5.17 3.31 4.60Q4.49 4.03 5.84 4.03L5.84 4.03ZM13.33 7.41Q13.65 7.41 13.93 7.59Q14.21 7.78 14.21 8.05L14.21 8.05Q14.21 8.26 14.07 8.41Q13.93 8.55 13.69 8.55L13.69 8.55Q13.55 8.55 13.45 8.50Q13.36 8.46 13.29 8.39Q13.22 8.33 13.19 8.32L13.19 8.32Q13.08 8.20 12.97 8.14Q12.87 8.08 12.71 8.08L12.71 8.08Q12.54 8.08 12.35 8.21Q12.15 8.34 11.76 8.79L11.76 8.79L11.76 11.80Q11.76 12.21 11.87 12.41Q11.97 12.61 12.25 12.69Q12.53 12.77 13.09 12.77L13.09 12.77Q13.13 12.77 13.13 12.85Q13.13 12.94 13.09 12.94L13.09 12.94Q12.63 12.94 12.35 12.92L12.35 12.92L11.28 12.91L10.50 12.92Q10.30 12.94 9.97 12.94L9.97 12.94Q9.93 12.94 9.93 12.85Q9.93 12.77 9.97 12.77L9.97 12.77Q10.47 12.77 10.63 12.58Q10.79 12.39 10.79 11.80L10.79 11.80L10.79 9.07Q10.79 8.61 10.69 8.41Q10.58 8.20 10.33 8.20L10.33 8.20Q10.07 8.20 9.59 8.40L9.59 8.40L9.56 8.40Q9.52 8.40 9.50 8.33Q9.48 8.26 9.52 8.25L9.52 8.25L11.26 7.42Q11.28 7.41 11.34 7.41L11.34 7.41Q11.48 7.41 11.61 7.71Q11.75 8.02 11.76 8.53L11.76 8.53Q12.33 7.88 12.68 7.64Q13.02 7.41 13.33 7.41L13.33 7.41ZM19.54 12.11L19.56 12.11Q19.60 12.11 19.64 12.16Q19.67 12.21 19.64 12.25L19.64 12.25Q19.15 12.70 18.64 12.90Q18.13 13.10 17.54 13.10L17.54 13.10Q16.70 13.10 16.09 12.73Q15.48 12.36 15.17 11.75Q14.85 11.13 14.85 10.42L14.85 10.42Q14.85 9.59 15.25 8.90Q15.65 8.20 16.36 7.80Q17.07 7.41 17.92 7.41L17.92 7.41Q18.70 7.41 19.14 7.78Q19.57 8.15 19.57 8.79L19.57 8.79Q19.57 9.14 19.42 9.14L19.42 9.14L18.75 9.14L15.99 9.17Q15.93 9.45 15.93 9.86L15.93 9.86Q15.93 11.06 16.51 11.80Q17.09 12.54 18.12 12.54L18.12 12.54Q18.93 12.54 19.54 12.11L19.54 12.11ZM17.43 7.69Q16.91 7.69 16.55 8.02Q16.18 8.34 16.03 8.95L16.03 8.95L18.44 8.89Q18.42 8.33 18.16 8.01Q17.89 7.69 17.43 7.69L17.43 7.69ZM21.60 8.33Q21.60 8.79 21.92 9.09Q22.23 9.38 22.82 9.69L22.82 9.69Q23.32 9.95 23.60 10.14Q23.87 10.33 24.07 10.63Q24.26 10.92 24.26 11.35L24.26 11.35Q24.26 12.07 23.72 12.58Q23.18 13.09 22.25 13.09L22.25 13.09Q21.52 13.09 20.87 12.68L20.87 12.68Q20.79 12.60 20.79 12.52L20.79 12.52L20.76 11.33Q20.76 11.28 20.84 11.28Q20.92 11.27 20.93 11.31L20.93 11.31Q21.18 12.01 21.64 12.42Q22.09 12.82 22.65 12.82L22.65 12.82Q23.04 12.82 23.26 12.63Q23.48 12.43 23.48 12.05L23.48 12.05Q23.48 11.66 23.31 11.39Q23.14 11.12 22.90 10.96Q22.65 10.79 22.23 10.57L22.23 10.57Q21.77 10.35 21.50 10.16Q21.22 9.98 21.04 9.69Q20.85 9.39 20.85 8.95L20.85 8.95Q20.85 8.16 21.42 7.76Q21.99 7.36 22.79 7.36L22.79 7.36Q23.34 7.36 23.86 7.57L23.86 7.57Q23.98 7.62 23.98 7.73L23.98 7.73Q23.98 8.04 23.97 8.20L23.97 8.20L23.95 8.83Q23.95 8.86 23.87 8.86Q23.79 8.86 23.79 8.83L23.79 8.83Q23.79 8.55 23.56 8.27Q23.34 7.99 23.00 7.82Q22.65 7.64 22.30 7.64L22.30 7.64Q21.98 7.64 21.79 7.80Q21.60 7.97 21.60 8.33L21.60 8.33ZM29.23 12.14L29.26 12.12Q29.32 12.12 29.34 12.19Q29.37 12.25 29.33 12.28L29.33 12.28Q28.81 12.71 28.38 12.91Q27.94 13.10 27.47 13.10L27.47 13.10Q26.88 13.10 26.48 12.83Q26.08 12.56 26.08 11.91L26.08 11.91L26.08 8.68Q26.08 8.19 25.95 8.05Q25.82 7.91 25.35 7.91L25.35 7.91Q25.31 7.91 25.31 7.80L25.31 7.80Q25.31 7.70 25.35 7.70L25.35 7.70Q25.97 7.69 26.35 7.40Q26.73 7.11 26.84 6.61L26.84 6.61Q26.85 6.57 26.95 6.57Q27.05 6.57 27.05 6.61L27.05 6.61L27.05 7.69Q27.73 7.67 28.95 7.55L28.95 7.55Q28.99 7.55 29.02 7.64Q29.05 7.74 29.05 7.87L29.05 7.87Q29.05 7.99 29.01 8.11Q28.97 8.23 28.91 8.22L28.91 8.22Q28.03 8.04 27.05 8.01L27.05 8.01L27.05 11.44Q27.05 12.00 27.33 12.27Q27.61 12.54 28.13 12.54L28.13 12.54Q28.74 12.54 29.23 12.14L29.23 12.14ZM42.59 4.19Q42.62 4.19 42.62 4.27Q42.62 4.35 42.59 4.35L42.59 4.35Q41.58 4.35 41.08 5.63L41.08 5.63L38.22 12.92Q38.21 12.98 38.07 12.98L38.07 12.98Q37.93 12.98 37.91 12.92L37.91 12.92L36.09 9.00L34.57 12.92Q34.55 12.98 34.41 12.98L34.41 12.98Q34.27 12.98 34.26 12.92L34.26 12.92L30.74 5.35Q30.48 4.76 30.25 4.56Q30.02 4.35 29.60 4.35L29.60 4.35Q29.55 4.35 29.55 4.27Q29.55 4.19 29.60 4.19L29.60 4.19L30.03 4.20Q30.39 4.23 30.72 4.23L30.72 4.23Q31.35 4.23 31.96 4.20L31.96 4.20Q32.16 4.19 32.49 4.19L32.49 4.19Q32.54 4.19 32.54 4.27Q32.54 4.35 32.49 4.35L32.49 4.35Q32.09 4.35 31.91 4.44Q31.72 4.52 31.72 4.76L31.72 4.76Q31.72 4.96 31.92 5.39L31.92 5.39L34.76 11.45L35.90 8.58L34.40 5.35Q34.16 4.83 33.91 4.59Q33.67 4.35 33.32 4.35L33.32 4.35Q33.28 4.35 33.28 4.27Q33.28 4.19 33.32 4.19L33.32 4.19L33.75 4.20Q34.09 4.23 34.37 4.23L34.37 4.23Q34.90 4.23 35.35 4.20L35.35 4.20Q35.49 4.19 35.73 4.19L35.73 4.19Q35.77 4.19 35.77 4.27Q35.77 4.35 35.73 4.35L35.73 4.35Q35.49 4.35 35.38 4.40Q35.28 4.45 35.28 4.58L35.28 4.58Q35.28 4.69 35.36 4.90Q35.45 5.11 35.57 5.39L35.57 5.39L36.47 7.31L37.16 5.57Q37.35 5.05 37.35 4.79L37.35 4.79Q37.35 4.35 36.83 4.35L36.83 4.35Q36.81 4.35 36.81 4.27Q36.81 4.19 36.83 4.19L36.83 4.19L37.11 4.20Q37.37 4.23 37.76 4.23L37.76 4.23Q38.02 4.23 38.36 4.20L38.36 4.20L38.93 4.19Q38.96 4.19 38.96 4.27Q38.96 4.35 38.93 4.35L38.93 4.35Q38.46 4.35 38.11 4.65Q37.76 4.94 37.49 5.63L37.49 5.63L36.67 7.71L38.42 11.45L40.71 5.63Q40.84 5.31 40.84 5.05L40.84 5.05Q40.84 4.35 39.86 4.35L39.86 4.35Q39.82 4.35 39.82 4.27Q39.82 4.19 39.86 4.19L39.86 4.19L40.46 4.20Q40.96 4.23 41.34 4.23L41.34 4.23Q41.62 4.23 41.99 4.20L41.99 4.20L42.59 4.19ZM47.19 12.18L47.21 12.18Q47.26 12.18 47.28 12.24Q47.31 12.31 47.25 12.33L47.25 12.33L45.81 13.02Q45.75 13.05 45.68 13.05L45.68 13.05Q45.50 13.05 45.34 12.82Q45.18 12.59 45.12 12.18L45.12 12.18L44.32 12.61Q43.53 13.03 42.99 13.03L42.99 13.03Q42.56 13.03 42.31 12.80Q42.07 12.57 42.07 12.19L42.07 12.19Q42.07 11.79 42.37 11.56Q42.67 11.34 43.48 11.06L43.48 11.06L45.09 10.50L45.09 9.37Q45.09 8.47 44.88 8.09Q44.66 7.70 44.25 7.70L44.25 7.70Q43.82 7.70 43.58 8.02Q43.33 8.33 43.27 8.83L43.27 8.83Q43.22 9.45 42.66 9.45L42.66 9.45Q42.41 9.45 42.27 9.32Q42.13 9.20 42.13 8.97L42.13 8.97Q42.13 8.64 42.57 8.27Q43.01 7.90 43.62 7.65Q44.24 7.41 44.73 7.41L44.73 7.41Q45.32 7.41 45.68 7.79Q46.05 8.18 46.05 8.95L46.05 8.95L46.05 11.42Q46.05 11.89 46.18 12.11Q46.31 12.33 46.59 12.33L46.59 12.33Q46.84 12.33 47.19 12.18L47.19 12.18ZM44.45 12.31L45.09 11.97L45.09 11.83L45.09 10.70L43.86 11.16Q43.53 11.28 43.38 11.45Q43.23 11.61 43.23 11.84L43.23 11.84Q43.23 12.14 43.40 12.31Q43.57 12.47 43.83 12.47L43.83 12.47Q44.14 12.47 44.45 12.31L44.45 12.31ZM53.21 7.53Q53.26 7.53 53.26 7.62Q53.26 7.70 53.21 7.70L53.21 7.70Q52.82 7.70 52.55 7.99Q52.28 8.27 52.05 8.90L52.05 8.90L50.39 13.33Q49.88 14.67 49.42 15.44Q48.96 16.21 48.48 16.54Q47.99 16.87 47.39 16.87L47.39 16.87Q47.05 16.87 46.84 16.72Q46.63 16.56 46.63 16.28L46.63 16.28Q46.63 16.04 46.78 15.91Q46.93 15.78 47.14 15.78L47.14 15.78Q47.32 15.78 47.43 15.83Q47.54 15.88 47.70 15.96L47.70 15.96Q47.85 16.04 47.94 16.09Q48.03 16.13 48.19 16.13L48.19 16.13Q48.52 16.13 48.81 15.85Q49.10 15.57 49.42 14.92Q49.74 14.27 50.19 13.08L50.19 13.08L48.02 8.69Q47.70 8.08 47.53 7.89Q47.36 7.70 47.10 7.70L47.10 7.70Q47.07 7.70 47.07 7.62Q47.07 7.53 47.10 7.53L47.10 7.53L47.61 7.55Q47.80 7.56 48.12 7.56L48.12 7.56L49.03 7.55Q49.24 7.53 49.60 7.53L49.60 7.53Q49.63 7.53 49.63 7.62Q49.63 7.70 49.60 7.70L49.60 7.70Q49.22 7.70 49.03 7.77Q48.83 7.84 48.83 8.01L48.83 8.01Q48.83 8.12 48.90 8.25L48.90 8.25L50.68 11.90L51.72 8.93Q51.83 8.57 51.83 8.37L51.83 8.37Q51.83 8.02 51.58 7.86Q51.34 7.70 50.82 7.70L50.82 7.70Q50.79 7.70 50.79 7.62Q50.79 7.53 50.82 7.53L50.82 7.53Q51.20 7.53 51.39 7.55L51.39 7.55L52.23 7.56L52.77 7.55Q52.91 7.53 53.21 7.53L53.21 7.53ZM66.61 12.77Q66.65 12.77 66.65 12.85Q66.65 12.94 66.61 12.94L66.61 12.94Q66.16 12.94 65.90 12.92L65.90 12.92L64.89 12.91L63.78 12.92Q63.55 12.94 63.13 12.94L63.13 12.94Q63.08 12.94 63.08 12.85Q63.08 12.77 63.13 12.77L63.13 12.77Q63.66 12.77 63.91 12.70Q64.16 12.63 64.25 12.43Q64.33 12.22 64.33 11.80L64.33 11.80L64.33 8.54L59.23 8.54L59.23 11.80Q59.23 12.22 59.32 12.43Q59.40 12.63 59.65 12.70Q59.91 12.77 60.44 12.77L60.44 12.77Q60.47 12.77 60.47 12.85Q60.47 12.94 60.44 12.94L60.44 12.94Q59.99 12.94 59.72 12.92L59.72 12.92L58.65 12.91L57.65 12.92Q57.39 12.94 56.92 12.94L56.92 12.94Q56.90 12.94 56.90 12.85Q56.90 12.77 56.92 12.77L56.92 12.77Q57.44 12.77 57.69 12.70Q57.93 12.63 58.02 12.43Q58.11 12.22 58.11 11.80L58.11 11.80L58.11 5.32Q58.11 4.90 58.03 4.70Q57.95 4.51 57.71 4.43Q57.47 4.35 56.95 4.35L56.95 4.35Q56.91 4.35 56.91 4.27Q56.91 4.19 56.95 4.19L56.95 4.19L57.67 4.20Q58.25 4.23 58.65 4.23L58.65 4.23Q59.09 4.23 59.74 4.20L59.74 4.20L60.44 4.19Q60.47 4.19 60.47 4.27Q60.47 4.35 60.44 4.35L60.44 4.35Q59.92 4.35 59.67 4.44Q59.42 4.52 59.33 4.72Q59.23 4.93 59.23 5.35L59.23 5.35L59.23 8.22L64.33 8.22L64.33 5.35Q64.33 4.93 64.24 4.72Q64.15 4.52 63.90 4.44Q63.66 4.35 63.13 4.35L63.13 4.35Q63.08 4.35 63.08 4.27Q63.08 4.19 63.13 4.19L63.13 4.19L63.78 4.20Q64.43 4.23 64.89 4.23L64.89 4.23Q65.28 4.23 65.90 4.20L65.90 4.20L66.61 4.19Q66.65 4.19 66.65 4.27Q66.65 4.35 66.61 4.35L66.61 4.35Q66.09 4.35 65.86 4.43Q65.62 4.51 65.53 4.70Q65.44 4.90 65.44 5.32L65.44 5.32L65.44 11.80Q65.44 12.22 65.53 12.43Q65.62 12.63 65.86 12.70Q66.09 12.77 66.61 12.77L66.61 12.77ZM70.38 13.12Q69.55 13.12 68.92 12.72Q68.29 12.32 67.95 11.64Q67.61 10.96 67.61 10.16L67.61 10.16Q67.61 9.25 68.05 8.62Q68.50 7.98 69.20 7.67Q69.90 7.35 70.63 7.35L70.63 7.35Q71.46 7.35 72.09 7.76Q72.72 8.16 73.05 8.83Q73.39 9.49 73.39 10.23L73.39 10.23Q73.39 11.09 72.98 11.75Q72.56 12.40 71.88 12.76Q71.19 13.12 70.38 13.12L70.38 13.12ZM70.78 12.85Q71.48 12.85 71.86 12.31Q72.24 11.76 72.24 10.67L72.24 10.67Q72.24 9.76 71.97 9.06Q71.69 8.37 71.22 8.00Q70.74 7.63 70.15 7.63L70.15 7.63Q69.47 7.63 69.10 8.16Q68.73 8.68 68.73 9.70L68.73 9.70Q68.73 10.58 68.99 11.30Q69.26 12.03 69.73 12.44Q70.20 12.85 70.78 12.85L70.78 12.85ZM74.40 12.94Q74.37 12.94 74.37 12.85Q74.37 12.77 74.40 12.77L74.40 12.77Q74.91 12.77 75.08 12.58Q75.24 12.39 75.24 11.80L75.24 11.80L75.25 4.61Q75.25 4.10 75.15 3.88Q75.05 3.67 74.82 3.67L74.82 3.67Q74.58 3.67 74.21 3.85L74.21 3.85L74.19 3.85Q74.14 3.85 74.12 3.78Q74.09 3.71 74.13 3.70L74.13 3.70L76.01 2.80L76.06 2.79Q76.12 2.79 76.17 2.83Q76.23 2.87 76.23 2.93L76.23 2.93L76.23 11.80Q76.23 12.39 76.39 12.58Q76.55 12.77 77.06 12.77L77.06 12.77Q77.11 12.77 77.11 12.85Q77.11 12.94 77.06 12.94L77.06 12.94Q76.73 12.94 76.54 12.92L76.54 12.92L75.73 12.91L74.94 12.92Q74.75 12.94 74.40 12.94L74.40 12.94ZM84.57 12.11L84.60 12.10Q84.64 12.10 84.67 12.17Q84.70 12.24 84.66 12.26L84.66 12.26L82.99 13.06Q82.91 13.09 82.89 13.09L82.89 13.09Q82.73 13.09 82.60 12.80Q82.47 12.50 82.46 11.98L82.46 11.98Q81.96 12.50 81.41 12.81Q80.86 13.12 80.19 13.12L80.19 13.12Q79.60 13.12 79.10 12.79Q78.60 12.46 78.30 11.84Q78.01 11.23 78.01 10.43L78.01 10.43Q78.01 9.41 78.50 8.71Q78.99 8.02 79.72 7.69Q80.46 7.35 81.20 7.35L81.20 7.35Q81.84 7.35 82.46 7.64L82.46 7.64L82.46 4.62Q82.46 4.10 82.36 3.88Q82.26 3.67 82.01 3.67L82.01 3.67Q81.83 3.67 81.41 3.86L81.41 3.86L81.40 3.86Q81.34 3.86 81.31 3.79Q81.28 3.72 81.33 3.70L81.33 3.70L83.19 2.80Q83.22 2.79 83.26 2.79L83.26 2.79Q83.30 2.79 83.36 2.83Q83.43 2.87 83.43 2.93L83.43 2.93L83.43 11.37Q83.43 11.86 83.53 12.07Q83.64 12.29 83.89 12.29L83.89 12.29Q84.21 12.29 84.57 12.11L84.57 12.11ZM80.81 12.56Q81.28 12.56 81.68 12.34Q82.07 12.12 82.46 11.73L82.46 11.73L82.46 8.53Q82.17 8.11 81.78 7.88Q81.40 7.66 80.88 7.66L80.88 7.66Q80.04 7.66 79.56 8.25Q79.09 8.83 79.09 10.00L79.09 10.00Q79.09 11.17 79.57 11.87Q80.05 12.56 80.81 12.56L80.81 12.56ZM85.37 12.94Q85.33 12.94 85.33 12.85Q85.33 12.77 85.37 12.77L85.37 12.77Q85.88 12.77 86.04 12.58Q86.21 12.39 86.21 11.80L86.21 11.80L86.21 9.23Q86.21 8.72 86.11 8.50Q86.02 8.29 85.76 8.29L85.76 8.29Q85.53 8.29 85.16 8.47L85.16 8.47L85.15 8.47Q85.09 8.47 85.06 8.39Q85.04 8.32 85.09 8.30L85.09 8.30L87.00 7.42L87.05 7.41Q87.09 7.41 87.14 7.45Q87.19 7.49 87.19 7.55L87.19 7.55Q87.19 7.64 87.18 8.11Q87.16 8.57 87.16 9.20L87.16 9.20L87.16 11.80Q87.16 12.39 87.33 12.58Q87.49 12.77 88.00 12.77L88.00 12.77Q88.05 12.77 88.05 12.85Q88.05 12.94 88.00 12.94L88.00 12.94Q87.67 12.94 87.46 12.92L87.46 12.92L86.69 12.91L85.92 12.92Q85.71 12.94 85.37 12.94L85.37 12.94ZM86.60 5.85Q86.28 5.85 86.09 5.67Q85.90 5.49 85.90 5.17L85.90 5.17Q85.90 4.86 86.09 4.68Q86.28 4.51 86.60 4.51L86.60 4.51Q86.91 4.51 87.09 4.68Q87.26 4.86 87.26 5.17L87.26 5.17Q87.26 5.49 87.09 5.67Q86.91 5.85 86.60 5.85L86.60 5.85ZM95.47 12.77Q95.51 12.77 95.51 12.85Q95.51 12.94 95.47 12.94L95.47 12.94Q95.13 12.94 94.92 12.92L94.92 12.92L94.15 12.91L93.38 12.92Q93.17 12.94 92.83 12.94L92.83 12.94Q92.79 12.94 92.79 12.85Q92.79 12.77 92.83 12.77L92.83 12.77Q93.34 12.77 93.50 12.58Q93.66 12.39 93.66 11.80L93.66 11.80L93.66 9.62Q93.66 8.81 93.37 8.43Q93.07 8.05 92.43 8.05L92.43 8.05Q92.04 8.05 91.62 8.25Q91.20 8.44 90.86 8.79L90.86 8.79L90.86 11.80Q90.86 12.39 91.02 12.58Q91.18 12.77 91.70 12.77L91.70 12.77Q91.74 12.77 91.74 12.85Q91.74 12.94 91.70 12.94L91.70 12.94Q91.36 12.94 91.15 12.92L91.15 12.92L90.38 12.91L89.60 12.92Q89.40 12.94 89.07 12.94L89.07 12.94Q89.03 12.94 89.03 12.85Q89.03 12.77 89.07 12.77L89.07 12.77Q89.57 12.77 89.73 12.58Q89.89 12.39 89.89 11.80L89.89 11.80L89.89 9.07Q89.89 8.61 89.79 8.41Q89.68 8.20 89.43 8.20L89.43 8.20Q89.17 8.20 88.69 8.40L88.69 8.40L88.66 8.40Q88.62 8.40 88.60 8.33Q88.58 8.26 88.62 8.25L88.62 8.25L90.36 7.42Q90.38 7.41 90.44 7.41L90.44 7.41Q90.58 7.41 90.71 7.72Q90.85 8.04 90.86 8.54L90.86 8.54Q91.88 7.35 93.00 7.35L93.00 7.35Q93.77 7.35 94.20 7.80Q94.63 8.26 94.63 9.07L94.63 9.07L94.63 11.80Q94.63 12.39 94.79 12.58Q94.95 12.77 95.47 12.77L95.47 12.77ZM99.01 12.43Q99.97 12.59 100.46 12.71Q100.95 12.82 101.33 13.16Q101.71 13.50 101.71 14.13L101.71 14.13Q101.71 14.80 101.23 15.44Q100.76 16.09 99.95 16.48Q99.13 16.88 98.21 16.88L98.21 16.88Q97.20 16.88 96.58 16.41Q95.96 15.95 95.96 15.22L95.96 15.22Q95.96 14.69 96.33 14.16Q96.70 13.64 97.50 13.08L97.50 13.08Q96.57 12.80 96.57 12.11L96.57 12.11Q96.57 11.73 96.85 11.35Q97.13 10.96 97.62 10.67L97.62 10.67Q97.06 10.47 96.75 10.04Q96.43 9.62 96.43 9.11L96.43 9.11Q96.43 8.36 97.10 7.90Q97.76 7.43 98.69 7.43L98.69 7.43Q99.60 7.43 100.14 7.87L100.14 7.87Q100.93 7.41 101.65 7.41L101.65 7.41Q101.70 7.41 101.72 7.51Q101.74 7.62 101.74 7.74L101.74 7.74Q101.74 7.94 101.70 8.12Q101.65 8.30 101.60 8.27L101.60 8.27Q101.05 8.05 100.63 8.05L100.63 8.05Q100.55 8.05 100.35 8.08L100.35 8.08Q100.73 8.50 100.73 9.06L100.73 9.06Q100.73 9.55 100.44 9.95Q100.14 10.35 99.63 10.58Q99.12 10.81 98.52 10.81L98.52 10.81Q98.11 10.81 97.80 10.72L97.80 10.72Q97.36 11.03 97.36 11.52L97.36 11.52Q97.36 11.96 97.78 12.13Q98.20 12.31 99.01 12.43L99.01 12.43ZM98.29 7.66Q97.92 7.66 97.69 7.94Q97.47 8.22 97.47 8.79L97.47 8.79Q97.47 9.58 97.87 10.09Q98.27 10.60 98.84 10.60L98.84 10.60Q99.20 10.60 99.45 10.30Q99.69 10.00 99.69 9.37L99.69 9.37Q99.69 8.62 99.27 8.14Q98.85 7.66 98.29 7.66L98.29 7.66ZM98.83 16.46Q99.76 16.46 100.30 15.96Q100.84 15.46 100.84 14.73L100.84 14.73Q100.84 14.18 100.51 13.89Q100.17 13.59 99.73 13.49Q99.29 13.38 98.45 13.26L98.45 13.26Q98.18 13.23 97.79 13.15L97.79 13.15Q97.40 13.44 97.17 13.80Q96.95 14.17 96.95 14.70L96.95 14.70Q96.95 15.53 97.46 16.00Q97.97 16.46 98.83 16.46L98.83 16.46ZM103.38 8.33Q103.38 8.79 103.69 9.09Q104.01 9.38 104.59 9.69L104.59 9.69Q105.10 9.95 105.37 10.14Q105.64 10.33 105.84 10.63Q106.04 10.92 106.04 11.35L106.04 11.35Q106.04 12.07 105.50 12.58Q104.96 13.09 104.02 13.09L104.02 13.09Q103.29 13.09 102.65 12.68L102.65 12.68Q102.56 12.60 102.56 12.52L102.56 12.52L102.54 11.33Q102.54 11.28 102.61 11.28Q102.69 11.27 102.70 11.31L102.70 11.31Q102.96 12.01 103.41 12.42Q103.87 12.82 104.43 12.82L104.43 12.82Q104.82 12.82 105.04 12.63Q105.25 12.43 105.25 12.05L105.25 12.05Q105.25 11.66 105.08 11.39Q104.92 11.12 104.67 10.96Q104.43 10.79 104.01 10.57L104.01 10.57Q103.54 10.35 103.27 10.16Q103.00 9.98 102.81 9.69Q102.62 9.39 102.62 8.95L102.62 8.95Q102.62 8.16 103.19 7.76Q103.77 7.36 104.57 7.36L104.57 7.36Q105.11 7.36 105.63 7.57L105.63 7.57Q105.76 7.62 105.76 7.73L105.76 7.73Q105.76 8.04 105.74 8.20L105.74 8.20L105.73 8.83Q105.73 8.86 105.64 8.86Q105.56 8.86 105.56 8.83L105.56 8.83Q105.56 8.55 105.34 8.27Q105.11 7.99 104.77 7.82Q104.43 7.64 104.08 7.64L104.08 7.64Q103.75 7.64 103.57 7.80Q103.38 7.97 103.38 8.33L103.38 8.33Z"></path></g><!----><g data-v-423bf9ae="" id="b4e85e2a-ec22-40bd-8b94-a7bd31381533" transform="matrix(5.333333333333333,0,0,5.333333333333333,-74.33333333333326,-84.33332920074463)" stroke="none" fill="#4E1A70"><path d="M254.029 496h-.03c-51.604 0-100.778-16.131-142.206-46.65-40.595-29.904-70.306-70.916-85.922-118.602-1.719-5.248 1.143-10.896 6.391-12.615s10.896 1.143 12.616 6.391C74.548 415.127 158.587 476 254 476h.03c3.62 0 7.286-.09 10.898-.266 5.528-.28 10.207 3.983 10.477 9.498.27 5.517-3.983 10.207-9.5 10.478-3.936.192-7.932.29-11.876.29zm60.651-8.088c-4.397 0-8.428-2.924-9.642-7.37-1.453-5.328 1.688-10.826 7.016-12.28C407.405 442.247 474 354.962 474 256a221.75 221.75 0 00-4.292-43.471c-1.086-5.415 2.425-10.685 7.84-11.77 5.414-1.085 10.685 2.425 11.77 7.84A241.772 241.772 0 01494 256c0 53.711-17.345 104.492-50.159 146.854-31.787 41.033-76.721 71.115-126.523 84.703-.881.24-1.767.355-2.638.355zM25.105 288.818c-5.082 0-9.431-3.857-9.939-9.021A243.69 243.69 0 0114 256c0-49.5 14.948-97.027 43.229-137.442 27.638-39.498 65.94-69.472 110.766-86.684 5.154-1.98 10.94.594 12.92 5.751 1.979 5.156-.595 10.94-5.751 12.92C90.729 82.964 34 165.531 34 256c0 7.283.359 14.631 1.069 21.838.542 5.496-3.475 10.391-8.972 10.932-.333.033-.664.048-.992.048zm439.329-115.802a10 10 0 01-9.15-5.956C420.05 87.444 341.042 36 254 36c-10.953 0-21.956.812-32.703 2.413-5.463.816-10.55-2.954-11.364-8.417s2.955-10.551 8.417-11.364A242.599 242.599 0 01254 16c94.951 0 181.139 56.118 219.572 142.966 2.235 5.05-.047 10.957-5.098 13.191a9.949 9.949 0 01-4.04.859z"></path><path d="M254 496a78.865 78.865 0 01-17.662-2.016c-5.382-1.238-8.742-6.604-7.504-11.986 1.238-5.383 6.604-8.741 11.987-7.504A58.923 58.923 0 00254 476c29.272 0 57.285-22.059 78.879-62.111C355.527 371.881 368 315.808 368 256c0-29.385-3.01-57.934-8.945-84.853-1.189-5.394 2.219-10.729 7.612-11.919 5.394-1.184 10.729 2.219 11.919 7.612C384.833 195.172 388 225.169 388 256c0 63.063-13.323 122.506-37.517 167.38C325.236 470.21 290.971 496 254 496zm-57.988-26.646a9.968 9.968 0 01-7.01-2.869C146.44 424.642 120 343.988 120 256c0-28.43 2.706-56.241 8.041-82.66 1.094-5.414 6.37-8.914 11.782-7.823 5.414 1.093 8.916 6.368 7.823 11.782C142.572 202.418 140 228.897 140 256c0 82.817 24.149 158.005 63.023 196.223 3.938 3.871 3.992 10.203.12 14.141a9.974 9.974 0 01-7.131 2.99zm-44.758-332.16a9.987 9.987 0 01-3.429-.609c-5.188-1.894-7.858-7.635-5.964-12.823C166.498 56.285 208.418 16 254 16c22.572 0 44.783 9.947 64.23 28.767 18.006 17.425 33.755 42.576 45.542 72.734 2.011 5.144-.529 10.944-5.673 12.955-5.146 2.01-10.944-.53-12.954-5.673C323.416 69.19 289.343 36 254 36c-36.822 0-71.719 35.373-93.351 94.621-1.481 4.055-5.314 6.573-9.395 6.573z"></path><path d="M254 496c-5.523 0-10-4.477-10-10V290c0-5.523 4.477-10 10-10 5.522 0 10 4.477 10 10v196c0 5.523-4.478 10-10 10zM484 266H328c-5.522 0-10-4.477-10-10s4.478-10 10-10h156c5.522 0 10 4.477 10 10s-4.478 10-10 10zM178 266H28c-5.523 0-10-4.477-10-10s4.477-10 10-10h150c5.523 0 10 4.477 10 10s-4.477 10-10 10zM428 120h-50c-5.522 0-10-4.477-10-10s4.478-10 10-10h50c5.522 0 10 4.477 10 10s-4.478 10-10 10zm-100 0H28c-5.523 0-10-4.477-10-10s4.477-10 10-10h300c5.522 0 10 4.477 10 10s-4.478 10-10 10zM98 190H38c-5.523 0-10-4.477-10-10s4.477-10 10-10h60c5.523 0 10 4.477 10 10s-4.477 10-10 10zM488 190H308c-5.522 0-10-4.477-10-10s4.478-10 10-10h180c5.522 0 10 4.477 10 10s-4.478 10-10 10z"></path><path d="M478 410H178c-5.523 0-10-4.477-10-10s4.477-10 10-10h300c5.522 0 10 4.477 10 10s-4.478 10-10 10zm-350 0H78c-5.523 0-10-4.477-10-10s4.477-10 10-10h50c5.523 0 10 4.477 10 10s-4.477 10-10 10zM468 340H168c-5.523 0-10-4.477-10-10s4.477-10 10-10h300c5.522 0 10 4.477 10 10s-4.478 10-10 10zm-350 0H38c-5.523 0-10-4.477-10-10s4.477-10 10-10h80c5.523 0 10 4.477 10 10s-4.477 10-10 10zM218 170c-5.523 0-10-4.477-10-10V80c0-5.523 4.477-10 10-10s10 4.477 10 10v80c0 5.523-4.477 10-10 10zM408.313 310h-.625c-5.522 0-10-4.477-10-10s4.478-10 10-10h.625c5.522 0 10 4.477 10 10s-4.478 10-10 10zM438 310h-.625c-5.522 0-10-4.477-10-10s4.478-10 10-10H438c5.522 0 10 4.477 10 10s-4.478 10-10 10zM88.313 380h-.625c-5.523 0-10-4.477-10-10s4.477-10 10-10h.625c5.523 0 10 4.477 10 10s-4.478 10-10 10zM118 380h-.625c-5.523 0-10-4.477-10-10s4.477-10 10-10H118c5.523 0 10 4.477 10 10s-4.477 10-10 10z"></path><g><path d="M276.552 196.25c-.204-.271-.8-.714-1.785-1.325-.986-.612-2.244-1.275-3.773-1.989a53.073 53.073 0 00-5.101-2.04 30.647 30.647 0 00-5.661-1.377v13.872l3.265.815c3.468.953 6.595 1.989 9.384 3.111 2.788 1.122 5.151 2.517 7.089 4.182a16.95 16.95 0 014.488 6.069c1.054 2.381 1.58 5.237 1.58 8.568 0 3.876-.68 7.175-2.039 9.894-1.361 2.721-3.18 4.947-5.457 6.681-2.279 1.734-4.896 3.045-7.854 3.928-2.959.883-6.069 1.393-9.334 1.529V260h-7.038v-11.934a62.132 62.132 0 01-13.923-2.856c-4.59-1.494-8.721-3.468-12.393-5.916l7.344-14.586c.271.342 1.002.902 2.193 1.684 1.189.782 2.703 1.599 4.539 2.447 1.836.852 3.91 1.668 6.222 2.448a38.853 38.853 0 007.141 1.684v-13.566l-4.897-1.428c-3.333-1.021-6.222-2.125-8.67-3.315-2.448-1.188-4.472-2.565-6.069-4.131a14.974 14.974 0 01-3.57-5.406c-.783-2.04-1.173-4.419-1.173-7.14 0-3.535.612-6.681 1.836-9.435 1.224-2.755 2.872-5.116 4.947-7.09 2.073-1.971 4.521-3.519 7.344-4.641 2.821-1.122 5.865-1.852 9.129-2.193v-10.302h7.038v10.302c4.42.408 8.568 1.395 12.444 2.958 3.876 1.565 7.242 3.162 10.099 4.794l-7.345 13.872zm-28.255-.918c0 1.701.594 3.044 1.785 4.029 1.188.986 2.974 1.854 5.356 2.601v-12.546c-4.761.408-7.141 2.382-7.141 5.916zm19.789 32.437c0-1.768-.715-3.145-2.143-4.131-1.428-.985-3.332-1.888-5.712-2.703v12.24c5.236-.204 7.855-2.006 7.855-5.406z"></path></g></g><!----></svg>